# xmcd CD database file
#
# Track frame offsets:
#	150
#	15528
#	29971
#	44956
#	64285
#	82311
#	99477
#	119925
#	135215
#	150846
#	165351
#	183327
#
# Disc length: 2654 seconds
#
# Revision: 2
# Processed by: cddbd v1.5.2PL0 Copyright (c) Steve Scherf et al.
# Submitted via: CDex 1.70beta2
#
DISCID=a50a5c0c
DTITLE=Barbara Schöneberger - Nochmal, nur anders
DYEAR=2009
DGENRE=Vocal
TTITLE0=Verboten gut
TTITLE1=Liebesleben
TTITLE2=Berlin Mitte
TTITLE3=Denk jetzt bitte an ein Nilpferd
TTITLE4=Glitzer
TTITLE5=Ich steh auf Jungs
TTITLE6=Ich weiß was ich will
TTITLE7=Was ein Mann tun muss
TTITLE8=Du machst die Liebe
TTITLE9=Alles echt
TTITLE10=Wenn das Wenn nicht wär
TTITLE11=Barbaradies
EXTD=YEAR: 2009
EXTT0=
EXTT1=
EXTT2=
EXTT3=
EXTT4=
EXTT5=
EXTT6=
EXTT7=
EXTT8=
EXTT9=
EXTT10=
EXTT11=
PLAYORDER=
